<mxfile host="app.diagrams.net" modified="2023-06-27T22:39:58.271Z" agent="Mozilla/5.0 (Windows NT 10.0; Win64; x64) AppleWebKit/537.36 (KHTML, like Gecko) Chrome/114.0.0.0 Safari/537.36" etag="fJI0xoRRUWZmKJjsFPaF" version="21.3.3" type="github">
  <diagram name="Page-1" id="6133507b-19e7-1e82-6fc7-422aa6c4b21f">
    <mxGraphModel dx="1400" dy="732" grid="1" gridSize="10" guides="1" tooltips="1" connect="1" arrows="1" fold="1" page="1" pageScale="1" pageWidth="1100" pageHeight="850" background="none" math="0" shadow="0">
      <root>
        <mxCell id="0" />
        <mxCell id="1" parent="0" />
        <mxCell id="kJAVJmlFK9kaIiySBaVX-22" style="edgeStyle=orthogonalEdgeStyle;rounded=0;orthogonalLoop=1;jettySize=auto;html=1;exitX=1;exitY=0.25;exitDx=0;exitDy=0;entryX=0;entryY=0.5;entryDx=0;entryDy=0;" edge="1" parent="1" source="kJAVJmlFK9kaIiySBaVX-1" target="kJAVJmlFK9kaIiySBaVX-17">
          <mxGeometry relative="1" as="geometry" />
        </mxCell>
        <mxCell id="kJAVJmlFK9kaIiySBaVX-1" value="People" style="swimlane;fontStyle=1;align=center;verticalAlign=top;childLayout=stackLayout;horizontal=1;startSize=26;horizontalStack=0;resizeParent=1;resizeParentMax=0;resizeLast=0;collapsible=1;marginBottom=0;whiteSpace=wrap;html=1;" vertex="1" parent="1">
          <mxGeometry x="110" y="40" width="160" height="112" as="geometry" />
        </mxCell>
        <mxCell id="kJAVJmlFK9kaIiySBaVX-37" value="+ field: type" style="text;strokeColor=none;fillColor=none;align=left;verticalAlign=top;spacingLeft=4;spacingRight=4;overflow=hidden;rotatable=0;points=[[0,0.5],[1,0.5]];portConstraint=eastwest;whiteSpace=wrap;html=1;" vertex="1" parent="kJAVJmlFK9kaIiySBaVX-1">
          <mxGeometry y="26" width="160" height="26" as="geometry" />
        </mxCell>
        <mxCell id="kJAVJmlFK9kaIiySBaVX-2" value="+ field: type" style="text;strokeColor=none;fillColor=none;align=left;verticalAlign=top;spacingLeft=4;spacingRight=4;overflow=hidden;rotatable=0;points=[[0,0.5],[1,0.5]];portConstraint=eastwest;whiteSpace=wrap;html=1;" vertex="1" parent="kJAVJmlFK9kaIiySBaVX-1">
          <mxGeometry y="52" width="160" height="26" as="geometry" />
        </mxCell>
        <mxCell id="kJAVJmlFK9kaIiySBaVX-3" value="" style="line;strokeWidth=1;fillColor=none;align=left;verticalAlign=middle;spacingTop=-1;spacingLeft=3;spacingRight=3;rotatable=0;labelPosition=right;points=[];portConstraint=eastwest;strokeColor=inherit;" vertex="1" parent="kJAVJmlFK9kaIiySBaVX-1">
          <mxGeometry y="78" width="160" height="8" as="geometry" />
        </mxCell>
        <mxCell id="kJAVJmlFK9kaIiySBaVX-4" value="+ method(type): type" style="text;strokeColor=none;fillColor=none;align=left;verticalAlign=top;spacingLeft=4;spacingRight=4;overflow=hidden;rotatable=0;points=[[0,0.5],[1,0.5]];portConstraint=eastwest;whiteSpace=wrap;html=1;" vertex="1" parent="kJAVJmlFK9kaIiySBaVX-1">
          <mxGeometry y="86" width="160" height="26" as="geometry" />
        </mxCell>
        <mxCell id="kJAVJmlFK9kaIiySBaVX-21" style="edgeStyle=orthogonalEdgeStyle;rounded=0;orthogonalLoop=1;jettySize=auto;html=1;exitX=1;exitY=0.25;exitDx=0;exitDy=0;entryX=0;entryY=0.5;entryDx=0;entryDy=0;" edge="1" parent="1" source="kJAVJmlFK9kaIiySBaVX-5" target="kJAVJmlFK9kaIiySBaVX-18">
          <mxGeometry relative="1" as="geometry" />
        </mxCell>
        <mxCell id="kJAVJmlFK9kaIiySBaVX-5" value="Orders" style="swimlane;fontStyle=1;align=center;verticalAlign=top;childLayout=stackLayout;horizontal=1;startSize=26;horizontalStack=0;resizeParent=1;resizeParentMax=0;resizeLast=0;collapsible=1;marginBottom=0;whiteSpace=wrap;html=1;" vertex="1" parent="1">
          <mxGeometry x="110" y="179" width="160" height="112" as="geometry" />
        </mxCell>
        <mxCell id="kJAVJmlFK9kaIiySBaVX-26" value="+ field: type" style="text;strokeColor=none;fillColor=none;align=left;verticalAlign=top;spacingLeft=4;spacingRight=4;overflow=hidden;rotatable=0;points=[[0,0.5],[1,0.5]];portConstraint=eastwest;whiteSpace=wrap;html=1;" vertex="1" parent="kJAVJmlFK9kaIiySBaVX-5">
          <mxGeometry y="26" width="160" height="26" as="geometry" />
        </mxCell>
        <mxCell id="kJAVJmlFK9kaIiySBaVX-6" value="+ field: type" style="text;strokeColor=none;fillColor=none;align=left;verticalAlign=top;spacingLeft=4;spacingRight=4;overflow=hidden;rotatable=0;points=[[0,0.5],[1,0.5]];portConstraint=eastwest;whiteSpace=wrap;html=1;" vertex="1" parent="kJAVJmlFK9kaIiySBaVX-5">
          <mxGeometry y="52" width="160" height="26" as="geometry" />
        </mxCell>
        <mxCell id="kJAVJmlFK9kaIiySBaVX-7" value="" style="line;strokeWidth=1;fillColor=none;align=left;verticalAlign=middle;spacingTop=-1;spacingLeft=3;spacingRight=3;rotatable=0;labelPosition=right;points=[];portConstraint=eastwest;strokeColor=inherit;" vertex="1" parent="kJAVJmlFK9kaIiySBaVX-5">
          <mxGeometry y="78" width="160" height="8" as="geometry" />
        </mxCell>
        <mxCell id="kJAVJmlFK9kaIiySBaVX-8" value="+ method(type): type" style="text;strokeColor=none;fillColor=none;align=left;verticalAlign=top;spacingLeft=4;spacingRight=4;overflow=hidden;rotatable=0;points=[[0,0.5],[1,0.5]];portConstraint=eastwest;whiteSpace=wrap;html=1;" vertex="1" parent="kJAVJmlFK9kaIiySBaVX-5">
          <mxGeometry y="86" width="160" height="26" as="geometry" />
        </mxCell>
        <mxCell id="kJAVJmlFK9kaIiySBaVX-23" style="edgeStyle=orthogonalEdgeStyle;rounded=0;orthogonalLoop=1;jettySize=auto;html=1;exitX=1;exitY=0.25;exitDx=0;exitDy=0;entryX=0;entryY=0.5;entryDx=0;entryDy=0;" edge="1" parent="1" source="kJAVJmlFK9kaIiySBaVX-9" target="kJAVJmlFK9kaIiySBaVX-19">
          <mxGeometry relative="1" as="geometry" />
        </mxCell>
        <mxCell id="kJAVJmlFK9kaIiySBaVX-9" value="Items" style="swimlane;fontStyle=1;align=center;verticalAlign=top;childLayout=stackLayout;horizontal=1;startSize=26;horizontalStack=0;resizeParent=1;resizeParentMax=0;resizeLast=0;collapsible=1;marginBottom=0;whiteSpace=wrap;html=1;" vertex="1" parent="1">
          <mxGeometry x="110" y="339" width="160" height="86" as="geometry" />
        </mxCell>
        <mxCell id="kJAVJmlFK9kaIiySBaVX-10" value="+ field: type" style="text;strokeColor=none;fillColor=none;align=left;verticalAlign=top;spacingLeft=4;spacingRight=4;overflow=hidden;rotatable=0;points=[[0,0.5],[1,0.5]];portConstraint=eastwest;whiteSpace=wrap;html=1;" vertex="1" parent="kJAVJmlFK9kaIiySBaVX-9">
          <mxGeometry y="26" width="160" height="26" as="geometry" />
        </mxCell>
        <mxCell id="kJAVJmlFK9kaIiySBaVX-11" value="" style="line;strokeWidth=1;fillColor=none;align=left;verticalAlign=middle;spacingTop=-1;spacingLeft=3;spacingRight=3;rotatable=0;labelPosition=right;points=[];portConstraint=eastwest;strokeColor=inherit;" vertex="1" parent="kJAVJmlFK9kaIiySBaVX-9">
          <mxGeometry y="52" width="160" height="8" as="geometry" />
        </mxCell>
        <mxCell id="kJAVJmlFK9kaIiySBaVX-12" value="+ method(type): type" style="text;strokeColor=none;fillColor=none;align=left;verticalAlign=top;spacingLeft=4;spacingRight=4;overflow=hidden;rotatable=0;points=[[0,0.5],[1,0.5]];portConstraint=eastwest;whiteSpace=wrap;html=1;" vertex="1" parent="kJAVJmlFK9kaIiySBaVX-9">
          <mxGeometry y="60" width="160" height="26" as="geometry" />
        </mxCell>
        <mxCell id="kJAVJmlFK9kaIiySBaVX-13" value="OrderDetails" style="swimlane;fontStyle=1;align=center;verticalAlign=top;childLayout=stackLayout;horizontal=1;startSize=26;horizontalStack=0;resizeParent=1;resizeParentMax=0;resizeLast=0;collapsible=1;marginBottom=0;whiteSpace=wrap;html=1;" vertex="1" parent="1">
          <mxGeometry x="110" y="470" width="160" height="86" as="geometry" />
        </mxCell>
        <mxCell id="kJAVJmlFK9kaIiySBaVX-14" value="+ field: type" style="text;strokeColor=none;fillColor=none;align=left;verticalAlign=top;spacingLeft=4;spacingRight=4;overflow=hidden;rotatable=0;points=[[0,0.5],[1,0.5]];portConstraint=eastwest;whiteSpace=wrap;html=1;" vertex="1" parent="kJAVJmlFK9kaIiySBaVX-13">
          <mxGeometry y="26" width="160" height="26" as="geometry" />
        </mxCell>
        <mxCell id="kJAVJmlFK9kaIiySBaVX-15" value="" style="line;strokeWidth=1;fillColor=none;align=left;verticalAlign=middle;spacingTop=-1;spacingLeft=3;spacingRight=3;rotatable=0;labelPosition=right;points=[];portConstraint=eastwest;strokeColor=inherit;" vertex="1" parent="kJAVJmlFK9kaIiySBaVX-13">
          <mxGeometry y="52" width="160" height="8" as="geometry" />
        </mxCell>
        <mxCell id="kJAVJmlFK9kaIiySBaVX-16" value="+ method(type): type" style="text;strokeColor=none;fillColor=none;align=left;verticalAlign=top;spacingLeft=4;spacingRight=4;overflow=hidden;rotatable=0;points=[[0,0.5],[1,0.5]];portConstraint=eastwest;whiteSpace=wrap;html=1;" vertex="1" parent="kJAVJmlFK9kaIiySBaVX-13">
          <mxGeometry y="60" width="160" height="26" as="geometry" />
        </mxCell>
        <mxCell id="kJAVJmlFK9kaIiySBaVX-34" style="edgeStyle=orthogonalEdgeStyle;rounded=0;orthogonalLoop=1;jettySize=auto;html=1;exitX=1;exitY=0.5;exitDx=0;exitDy=0;entryX=0;entryY=0.5;entryDx=0;entryDy=0;" edge="1" parent="1" source="kJAVJmlFK9kaIiySBaVX-17" target="kJAVJmlFK9kaIiySBaVX-31">
          <mxGeometry relative="1" as="geometry" />
        </mxCell>
        <mxCell id="kJAVJmlFK9kaIiySBaVX-17" value="PeopleRepository" style="html=1;whiteSpace=wrap;" vertex="1" parent="1">
          <mxGeometry x="360" y="40" width="110" height="50" as="geometry" />
        </mxCell>
        <mxCell id="kJAVJmlFK9kaIiySBaVX-35" style="edgeStyle=orthogonalEdgeStyle;rounded=0;orthogonalLoop=1;jettySize=auto;html=1;entryX=0;entryY=0.5;entryDx=0;entryDy=0;" edge="1" parent="1" source="kJAVJmlFK9kaIiySBaVX-18" target="kJAVJmlFK9kaIiySBaVX-32">
          <mxGeometry relative="1" as="geometry" />
        </mxCell>
        <mxCell id="kJAVJmlFK9kaIiySBaVX-18" value="OrdersRepository" style="html=1;whiteSpace=wrap;" vertex="1" parent="1">
          <mxGeometry x="360" y="190" width="110" height="50" as="geometry" />
        </mxCell>
        <mxCell id="kJAVJmlFK9kaIiySBaVX-36" style="edgeStyle=orthogonalEdgeStyle;rounded=0;orthogonalLoop=1;jettySize=auto;html=1;entryX=0;entryY=0.5;entryDx=0;entryDy=0;" edge="1" parent="1" source="kJAVJmlFK9kaIiySBaVX-19" target="kJAVJmlFK9kaIiySBaVX-33">
          <mxGeometry relative="1" as="geometry" />
        </mxCell>
        <mxCell id="kJAVJmlFK9kaIiySBaVX-19" value="ItemsRepository" style="html=1;whiteSpace=wrap;" vertex="1" parent="1">
          <mxGeometry x="360" y="339" width="110" height="50" as="geometry" />
        </mxCell>
        <mxCell id="kJAVJmlFK9kaIiySBaVX-29" style="edgeStyle=orthogonalEdgeStyle;rounded=0;orthogonalLoop=1;jettySize=auto;html=1;entryX=0;entryY=0.5;entryDx=0;entryDy=0;" edge="1" parent="1" source="kJAVJmlFK9kaIiySBaVX-14" target="kJAVJmlFK9kaIiySBaVX-10">
          <mxGeometry relative="1" as="geometry" />
        </mxCell>
        <mxCell id="kJAVJmlFK9kaIiySBaVX-43" style="edgeStyle=orthogonalEdgeStyle;rounded=0;orthogonalLoop=1;jettySize=auto;html=1;entryX=-0.002;entryY=0.385;entryDx=0;entryDy=0;entryPerimeter=0;" edge="1" parent="1" source="kJAVJmlFK9kaIiySBaVX-31" target="kJAVJmlFK9kaIiySBaVX-40">
          <mxGeometry relative="1" as="geometry">
            <Array as="points">
              <mxPoint x="760" y="70" />
              <mxPoint x="760" y="102" />
            </Array>
          </mxGeometry>
        </mxCell>
        <mxCell id="kJAVJmlFK9kaIiySBaVX-31" value="&lt;p style=&quot;margin:0px;margin-top:4px;text-align:center;&quot;&gt;&lt;br&gt;&lt;b&gt;PeopleController&lt;/b&gt;&lt;/p&gt;" style="verticalAlign=top;align=left;overflow=fill;fontSize=12;fontFamily=Helvetica;html=1;whiteSpace=wrap;" vertex="1" parent="1">
          <mxGeometry x="550" y="40" width="140" height="60" as="geometry" />
        </mxCell>
        <mxCell id="kJAVJmlFK9kaIiySBaVX-42" style="edgeStyle=orthogonalEdgeStyle;rounded=0;orthogonalLoop=1;jettySize=auto;html=1;entryX=-0.014;entryY=0.638;entryDx=0;entryDy=0;entryPerimeter=0;" edge="1" parent="1" source="kJAVJmlFK9kaIiySBaVX-32" target="kJAVJmlFK9kaIiySBaVX-40">
          <mxGeometry relative="1" as="geometry">
            <Array as="points">
              <mxPoint x="690" y="150" />
              <mxPoint x="828" y="150" />
            </Array>
          </mxGeometry>
        </mxCell>
        <mxCell id="kJAVJmlFK9kaIiySBaVX-32" value="&lt;p style=&quot;margin:0px;margin-top:4px;text-align:center;&quot;&gt;&lt;br&gt;&lt;b&gt;OrdersController&lt;/b&gt;&lt;/p&gt;" style="verticalAlign=top;align=left;overflow=fill;fontSize=12;fontFamily=Helvetica;html=1;whiteSpace=wrap;" vertex="1" parent="1">
          <mxGeometry x="550" y="190" width="140" height="60" as="geometry" />
        </mxCell>
        <mxCell id="kJAVJmlFK9kaIiySBaVX-41" style="edgeStyle=orthogonalEdgeStyle;rounded=0;orthogonalLoop=1;jettySize=auto;html=1;entryX=-0.002;entryY=0.905;entryDx=0;entryDy=0;entryPerimeter=0;" edge="1" parent="1" source="kJAVJmlFK9kaIiySBaVX-33" target="kJAVJmlFK9kaIiySBaVX-40">
          <mxGeometry relative="1" as="geometry" />
        </mxCell>
        <mxCell id="kJAVJmlFK9kaIiySBaVX-33" value="&lt;p style=&quot;margin:0px;margin-top:4px;text-align:center;&quot;&gt;&lt;/p&gt;&lt;div style=&quot;text-align: center; height: 2px;&quot;&gt;&lt;b&gt;ItemsController&lt;/b&gt;&lt;/div&gt;" style="verticalAlign=top;align=left;overflow=fill;fontSize=12;fontFamily=Helvetica;html=1;whiteSpace=wrap;" vertex="1" parent="1">
          <mxGeometry x="550" y="339" width="140" height="60" as="geometry" />
        </mxCell>
        <mxCell id="kJAVJmlFK9kaIiySBaVX-38" style="edgeStyle=orthogonalEdgeStyle;rounded=0;orthogonalLoop=1;jettySize=auto;html=1;entryX=0;entryY=0.5;entryDx=0;entryDy=0;" edge="1" parent="1" source="kJAVJmlFK9kaIiySBaVX-37" target="kJAVJmlFK9kaIiySBaVX-26">
          <mxGeometry relative="1" as="geometry" />
        </mxCell>
        <mxCell id="kJAVJmlFK9kaIiySBaVX-39" style="edgeStyle=orthogonalEdgeStyle;rounded=0;orthogonalLoop=1;jettySize=auto;html=1;entryX=0;entryY=0.5;entryDx=0;entryDy=0;" edge="1" parent="1" source="kJAVJmlFK9kaIiySBaVX-6" target="kJAVJmlFK9kaIiySBaVX-14">
          <mxGeometry relative="1" as="geometry">
            <Array as="points">
              <mxPoint x="50" y="244" />
              <mxPoint x="50" y="509" />
            </Array>
          </mxGeometry>
        </mxCell>
        <mxCell id="kJAVJmlFK9kaIiySBaVX-44" style="edgeStyle=orthogonalEdgeStyle;rounded=0;orthogonalLoop=1;jettySize=auto;html=1;" edge="1" parent="1" source="kJAVJmlFK9kaIiySBaVX-40">
          <mxGeometry relative="1" as="geometry">
            <mxPoint x="690" y="70" as="targetPoint" />
            <Array as="points">
              <mxPoint x="761" y="100" />
              <mxPoint x="761" y="71" />
              <mxPoint x="690" y="71" />
            </Array>
          </mxGeometry>
        </mxCell>
        <mxCell id="kJAVJmlFK9kaIiySBaVX-45" style="edgeStyle=orthogonalEdgeStyle;rounded=0;orthogonalLoop=1;jettySize=auto;html=1;exitX=0;exitY=0.7;exitDx=0;exitDy=0;entryX=1;entryY=0;entryDx=0;entryDy=0;" edge="1" parent="1" source="kJAVJmlFK9kaIiySBaVX-40" target="kJAVJmlFK9kaIiySBaVX-32">
          <mxGeometry relative="1" as="geometry" />
        </mxCell>
        <mxCell id="kJAVJmlFK9kaIiySBaVX-46" style="edgeStyle=orthogonalEdgeStyle;rounded=0;orthogonalLoop=1;jettySize=auto;html=1;entryX=1;entryY=0.5;entryDx=0;entryDy=0;" edge="1" parent="1" source="kJAVJmlFK9kaIiySBaVX-40" target="kJAVJmlFK9kaIiySBaVX-33">
          <mxGeometry relative="1" as="geometry">
            <Array as="points">
              <mxPoint x="760" y="190" />
              <mxPoint x="760" y="369" />
            </Array>
          </mxGeometry>
        </mxCell>
        <mxCell id="kJAVJmlFK9kaIiySBaVX-40" value="&lt;b&gt;&lt;font style=&quot;font-size: 22px;&quot;&gt;DataBase&lt;/font&gt;&lt;/b&gt;" style="shape=datastore;whiteSpace=wrap;html=1;" vertex="1" parent="1">
          <mxGeometry x="830" y="40" width="170" height="160" as="geometry" />
        </mxCell>
      </root>
    </mxGraphModel>
  </diagram>
</mxfile>
